:SAMPLES-PER-SECOND 30
:FULLY-SPECIFIED
:DEGREES
101
root  -32.4902 39.6214 -16.2438 -11.7954 64.6921 -9.21043
RightUpLeg  -12.5703 -12.0189 5.36734
RightLeg  20.8501 -9.74084 2.0001
RightFoot  -5.98361 0.275873 -6.75311
RightToes  0.00048216 0.542163 -0.142577
Spine  18.747 -4.44954 5.15654
Spine1  10.1763 -5.56287 7.46553
HEad  -1.51596 10.2249 -7.67555
LeftShoulder1  10.5862 -18.6052 -41.5073
LeftArm  15.6234 -46.5072 -43.6136
LeftForeArm  -2.79101 -21.6936 -5.36312
LeftHand  -0.25398 0.0180481 5.50724
RightShoulder  6.53102 12.4913 34.863
RightArm  -11.5167 -11.7692 31.2699
RightForeArm  1.06131 77.081 74.859
RightHand  -7.28839 15.578 -39.2371
LeftUpLeg  -15.3788 11.6248 3.40231
LeftLeg  63.2961 1.86063 4.60244
LeftFoot  6.2882 0.425327 -3.00562
LeftToes  1.06246e-005 4.65855e-005 -8.185e-006
102
root  -31.3781 39.8703 -15.9655 -9.80332 64.4421 -7.38098
RightUpLeg  -10.4028 -10.4885 3.743
RightLeg  19.7213 -10.6299 2.29541
RightFoot  -6.94751 0.17969 -5.91071
RightToes  0.00048216 0.542163 -0.142577
Spine  18.1127 -4.11279 4.67656
Spine1  10.3766 -5.27585 7.12129
HEad  -1.57058 10.0037 -8.14005
LeftShoulder1  10.5284 -18.5134 -41.4493
LeftArm  14.8166 -46.716 -42.8605
LeftForeArm  -2.45816 -21.5153 -5.3948
LeftHand  -0.25398 0.0180481 5.50724
RightShoulder  6.56768 12.5583 34.9197
RightArm  -11.1388 -10.7438 31.8642
RightForeArm  -4.27816 76.6834 69.2724
RightHand  -7.1649 15.3585 -39.0033
LeftUpLeg  -18.4322 9.69612 2.83914
LeftLeg  60.7644 3.61348 7.54191
LeftFoot  3.52722 0.0143141 -0.293208
LeftToes  1.06246e-005 4.65855e-005 -8.185e-006
103
root  -30.2659 40.1025 -15.6872 -8.00328 63.8226 -5.64218
RightUpLeg  -8.116 -9.61021 2.36958
RightLeg  18.4222 -10.7442 2.55129
RightFoot  -7.64376 0.117724 -5.24074
RightToes  0.00048216 0.542163 -0.142577
Spine  17.5049 -3.61051 4.30502
Spine1  10.5324 -4.76163 6.57586
HEad  -1.80108 9.84527 -8.83748
LeftShoulder1  10.4625 -18.4538 -41.2905
LeftArm  14.289 -47.0642 -42.3833
LeftForeArm  -2.27798 -20.92 -5.58882
LeftHand  -0.25398 0.0180481 5.50724
RightShoulder  6.59342 12.5786 35.0262
RightArm  -10.7651 -9.96294 32.1528
RightForeArm  -7.30495 76.3596 65.8016
RightHand  -7.11331 15.2842 -38.8738
LeftUpLeg  -20.4257 8.4021 2.50929
LeftLeg  55.639 4.23389 7.15382
LeftFoot  1.32288 -0.108843 0.885506
LeftToes  1.06246e-005 4.65855e-005 -8.185e-006
104
root  -29.1548 40.2697 -15.4032 -6.65507 63.1152 -4.25596
RightUpLeg  -5.76496 -9.35993 1.17418
RightLeg  17.3108 -10.0259 2.78717
RightFoot  -8.55909 0.0472698 -4.29246
RightToes  0.00048216 0.542163 -0.142577
Spine  16.9947 -3.11045 3.77954
Spine1  10.6699 -4.3254 6.2352
HEad  -2.14548 10.0549 -9.53231
LeftShoulder1  10.3961 -18.3939 -41.1286
LeftArm  13.4467 -47.2651 -41.8071
LeftForeArm  -2.18227 -20.3521 -5.80481
LeftHand  -0.25398 0.0180481 5.50724
RightShoulder  6.62002 12.5789 35.1882
RightArm  -10.3775 -9.15236 32.314
RightForeArm  -9.08305 76.1039 63.4414
RightHand  -7.11684 15.326 -38.8193
LeftUpLeg  -21.4198 8.24161 2.40454
LeftLeg  48.2939 3.8648 5.07363
LeftFoot  -0.423132 -0.0416017 0.452545
LeftToes  1.06246e-005 4.65855e-005 -8.185e-006
105
root  -28.0186 40.3334 -15.1146 -6.10164 62.7673 -3.81785
RightUpLeg  -3.65276 -9.23595 0.323924
RightLeg  16.6363 -9.36413 2.94708
RightFoot  -9.74114 -0.0212916 -3.20768
RightToes  0.00048216 0.542163 -0.142577
Spine  16.3002 -2.84792 3.38694
Spine1  10.8803 -4.23682 6.26164
HEad  -2.46486 10.5915 -9.98397
LeftShoulder1  10.3155 -18.3073 -40.9595
LeftArm  12.4701 -47.1623 -41.1284
LeftForeArm  -2.40604 -20.1992 -5.86349
LeftHand  -0.25398 0.0180481 5.50724
RightShoulder  6.63577 12.5693 35.3086
RightArm  -10.0929 -8.30423 32.5978
RightForeArm  -10.3333 75.8749 61.5224
RightHand  -7.14291 15.4072 -38.8099
LeftUpLeg  -21.6893 9.3762 2.37227
LeftLeg  39.0584 2.6247 2.66527
LeftFoot  -0.922628 0.059428 -0.581517
LeftToes  1.06246e-005 4.65855e-005 -8.185e-006
106
root  -26.8504 40.3654 -14.8286 -6.07852 62.6006 -4.10283
RightUpLeg  -1.54649 -9.02008 -0.204057
RightLeg  15.6983 -9.19112 3.09772
RightFoot  -10.5867 -0.0545222 -2.67883
RightToes  0.00048216 0.542163 -0.142577
Spine  15.3786 -2.72616 3.22385
Spine1  11.186 -4.25484 6.18587
HEad  -2.70319 11.1859 -10.1699
LeftShoulder1  10.2257 -18.1872 -40.8175
LeftArm  11.7899 -46.8709 -40.6319
LeftForeArm  -2.82825 -20.4137 -5.77411
LeftHand  -0.25398 0.0180481 5.50724
RightShoulder  6.6414 12.556 35.3766
RightArm  -10.0459 -7.75191 32.9151
RightForeArm  -10.2647 75.8031 60.9169
RightHand  -7.20304 15.5363 -38.8875
LeftUpLeg  -21.2992 12.4325 1.88293
LeftLeg  28.1098 0.465503 0.800959
LeftFoot  -0.256771 0.100479 -1.02185
LeftToes  1.06246e-005 4.65855e-005 -8.185e-006
107
root  -25.6636 40.4124 -14.5469 -6.02726 62.3125 -4.31765
RightUpLeg  0.913103 -8.76305 -0.735816
RightLeg  14.1027 -9.12442 3.25003
RightFoot  -11.0984 -0.0698548 -2.56322
RightToes  0.00048216 0.542163 -0.142577
Spine  14.5149 -2.58568 2.88949
Spine1  11.6086 -4.12825 5.76273
HEad  -2.80782 11.6817 -10.1919
LeftShoulder1  10.1394 -18.0436 -40.738
LeftArm  11.2913 -46.4796 -40.3948
LeftForeArm  -3.02577 -20.7816 -5.62315
LeftHand  -0.25398 0.0180481 5.50724
RightShoulder  6.65262 12.5402 35.4854
RightArm  -10.11 -7.59305 33.0359
RightForeArm  -8.59671 75.9494 61.9888
RightHand  -7.27496 15.6778 -39.0011
LeftUpLeg  -20.0499 15.8687 1.38706
LeftLeg  16.1545 0.457867 -0.466633
LeftFoot  0.613838 0.123817 -1.21645
LeftToes  1.06246e-005 4.65855e-005 -8.185e-006
108
root  -24.4254 40.3993 -14.2626 -6.02031 62.0998 -4.36406
RightUpLeg  3.64089 -8.62808 -1.42164
RightLeg  12.6347 -8.67109 3.29439
RightFoot  -11.9952 -0.0889552 -1.66836
RightToes  0.00048216 0.542163 -0.142577
Spine  13.7211 -2.49346 2.28425
Spine1  12.1782 -4.02878 5.39501
HEad  -2.68125 12.055 -10.0125
LeftShoulder1  10.0484 -17.8883 -40.6605
LeftArm  10.6731 -45.995 -40.2834
LeftForeArm  -2.97886 -21.1571 -5.47324
LeftHand  -0.25398 0.0180481 5.50724
RightShoulder  6.6645 12.5015 35.6566
RightArm  -10.0269 -7.54017 33.0074
RightForeArm  -6.63377 76.1365 63.47
RightHand  -7.31893 15.76 -39.0769
LeftUpLeg  -17.3925 12.1966 3.75668
LeftLeg  4.64191 11.4258 -3.58488
LeftFoot  1.01006 0.179507 -1.71761
LeftToes  1.06246e-005 4.65855e-005 -8.185e-006
109
root  -23.0901 40.2484 -13.9757 -6.43883 62.1749 -4.61439
RightUpLeg  6.23911 -8.85236 -2.21587
RightLeg  12.3931 -7.90171 3.11733
RightFoot  -13.5309 -0.091182 0.00870609
RightToes  0.00048216 0.542163 -0.142577
Spine  12.7999 -2.50978 1.71367
Spine1  12.8751 -4.1064 5.31038
HEad  -2.29276 12.2627 -9.47835
LeftShoulder1  9.93745 -17.7404 -40.4776
LeftArm  10.0569 -45.4979 -40.3115
LeftForeArm  -3.01977 -21.3673 -5.39721
LeftHand  -0.25398 0.0180481 5.50724
RightShoulder  6.66998 12.4623 35.7905
RightArm  -9.79129 -7.54475 32.9921
RightForeArm  -5.19927 76.2716 64.6273
RightHand  -7.37828 15.8342 -39.2401
LeftUpLeg  -14.922 6.61752 6.04541
LeftLeg  -3.72811 25.8465 -7.96991
LeftFoot  0.9297 0.18929 -1.78852
LeftToes  1.06246e-005 4.65855e-005 -8.185e-006
110
root  -21.6765 40.0039 -13.6937 -6.90248 62.3899 -4.67791
RightUpLeg  8.5974 -9.94508 -3.39197
RightLeg  13.4422 -6.86272 2.66397
RightFoot  -15.2748 -0.0762748 0.871349
RightToes  0.00048216 0.542163 -0.142577
Spine  11.9461 -2.54252 0.965987
Spine1  13.5834 -4.18104 5.25343
HEad  -1.73985 12.2864 -8.5995
LeftShoulder1  9.81908 -17.6223 -40.1964
LeftArm  9.76173 -45.0373 -40.5823
LeftForeArm  -3.21075 -21.2992 -5.4173
LeftHand  -0.25398 0.0180481 5.50724
RightShoulder  6.69 12.4913 35.8389
RightArm  -9.58188 -7.95993 32.8985
RightForeArm  -3.2516 76.4773 66.6066
RightHand  -7.51772 15.9998 -39.6339
LeftUpLeg  -14.1773 7.18544 5.40752
LeftLeg  -4.77223 32.1639 -9.27113
LeftFoot  1.40144 -0.00614129 -0.108493
LeftToes  1.06246e-005 4.65855e-005 -8.185e-006
111
root  -20.2513 39.7431 -13.4253 -6.44029 62.6899 -3.44126
RightUpLeg  10.8886 -12.7126 -5.68931
RightLeg  15.3973 -4.38895 1.77154
RightFoot  -17.0505 -0.0378288 1.4647
RightToes  0.00048216 0.542163 -0.142577
Spine  11.661 -2.48879 -0.798134
Spine1  14.0638 -4.20128 5.19053
HEad  -1.2221 12.2155 -7.69002
LeftShoulder1  9.74022 -17.5269 -40.0421
LeftArm  9.72828 -44.5138 -40.9178
LeftForeArm  -3.30634 -21.1462 -5.45913
LeftHand  -0.25398 0.0180481 5.50724
RightShoulder  6.73273 12.5742 35.8872
RightArm  -9.40826 -8.8345 32.604
RightForeArm  -0.185997 76.7639 69.7707
RightHand  -7.67248 16.1934 -40.0472
LeftUpLeg  -13.914 8.28938 3.99526
LeftLeg  -1.16847 33.7974 -8.07043
LeftFoot  3.99043 -0.640887 4.55494
LeftToes  1.06246e-005 4.65855e-005 -8.185e-006
112
root  -18.8284 39.421 -13.1951 -5.22801 63.1966 -1.15847
RightUpLeg  12.4064 -15.8222 -8.79919
RightLeg  19.3937 -0.75659 0.457347
RightFoot  -18.7898 0.206725 5.0513
RightToes  0.00048216 0.542163 -0.142577
Spine  11.9415 -2.34425 -3.13705
Spine1  14.1053 -4.36323 5.50606
HEad  -1.04219 12.0841 -7.21997
LeftShoulder1  9.75203 -17.4351 -40.2885
LeftArm  9.69808 -43.9313 -41.0022
LeftForeArm  -3.334 -21.2178 -5.44116
LeftHand  -0.25398 0.0180481 5.50724
RightShoulder  6.7642 12.6012 36.0097
RightArm  -9.2178 -9.6802 32.3136
RightForeArm  2.57047 76.9503 72.1123
RightHand  -7.70701 16.2586 -40.1003
LeftUpLeg  -15.9129 14.7886 0.142617
LeftLeg  8.20547 26.1091 -2.41119
LeftFoot  5.26565 -1.39327 9.35416
LeftToes  1.06246e-005 4.65855e-005 -8.185e-006
